<svg version="1.1" xmlns="http://www.w3.org/2000/svg" xmlns:xlink="http://www.w3.org/1999/xlink" width="529.044921875" height="339"><defs/><g><text fill="#eeeeee" stroke="none" font-family="Arial" font-size="24px" font-style="normal" font-weight="normal" text-decoration="none" x="0" y="0">UNREGISTERED</text><text fill="#eeeeee" stroke="none" font-family="Arial" font-size="24px" font-style="normal" font-weight="normal" text-decoration="none" x="0" y="30">UNREGISTERED</text><text fill="#eeeeee" stroke="none" font-family="Arial" font-size="24px" font-style="normal" font-weight="normal" text-decoration="none" x="0" y="60">UNREGISTERED</text><text fill="#eeeeee" stroke="none" font-family="Arial" font-size="24px" font-style="normal" font-weight="normal" text-decoration="none" x="0" y="90">UNREGISTERED</text><text fill="#eeeeee" stroke="none" font-family="Arial" font-size="24px" font-style="normal" font-weight="normal" text-decoration="none" x="0" y="120">UNREGISTERED</text><text fill="#eeeeee" stroke="none" font-family="Arial" font-size="24px" font-style="normal" font-weight="normal" text-decoration="none" x="0" y="150">UNREGISTERED</text><text fill="#eeeeee" stroke="none" font-family="Arial" font-size="24px" font-style="normal" font-weight="normal" text-decoration="none" x="0" y="180">UNREGISTERED</text><text fill="#eeeeee" stroke="none" font-family="Arial" font-size="24px" font-style="normal" font-weight="normal" text-decoration="none" x="0" y="210">UNREGISTERED</text><text fill="#eeeeee" stroke="none" font-family="Arial" font-size="24px" font-style="normal" font-weight="normal" text-decoration="none" x="0" y="240">UNREGISTERED</text><text fill="#eeeeee" stroke="none" font-family="Arial" font-size="24px" font-style="normal" font-weight="normal" text-decoration="none" x="0" y="270">UNREGISTERED</text><text fill="#eeeeee" stroke="none" font-family="Arial" font-size="24px" font-style="normal" font-weight="normal" text-decoration="none" x="0" y="300">UNREGISTERED</text><text fill="#eeeeee" stroke="none" font-family="Arial" font-size="24px" font-style="normal" font-weight="normal" text-decoration="none" x="0" y="330">UNREGISTERED</text><text fill="#eeeeee" stroke="none" font-family="Arial" font-size="24px" font-style="normal" font-weight="normal" text-decoration="none" x="200" y="0">UNREGISTERED</text><text fill="#eeeeee" stroke="none" font-family="Arial" font-size="24px" font-style="normal" font-weight="normal" text-decoration="none" x="200" y="30">UNREGISTERED</text><text fill="#eeeeee" stroke="none" font-family="Arial" font-size="24px" font-style="normal" font-weight="normal" text-decoration="none" x="200" y="60">UNREGISTERED</text><text fill="#eeeeee" stroke="none" font-family="Arial" font-size="24px" font-style="normal" font-weight="normal" text-decoration="none" x="200" y="90">UNREGISTERED</text><text fill="#eeeeee" stroke="none" font-family="Arial" font-size="24px" font-style="normal" font-weight="normal" text-decoration="none" x="200" y="120">UNREGISTERED</text><text fill="#eeeeee" stroke="none" font-family="Arial" font-size="24px" font-style="normal" font-weight="normal" text-decoration="none" x="200" y="150">UNREGISTERED</text><text fill="#eeeeee" stroke="none" font-family="Arial" font-size="24px" font-style="normal" font-weight="normal" text-decoration="none" x="200" y="180">UNREGISTERED</text><text fill="#eeeeee" stroke="none" font-family="Arial" font-size="24px" font-style="normal" font-weight="normal" text-decoration="none" x="200" y="210">UNREGISTERED</text><text fill="#eeeeee" stroke="none" font-family="Arial" font-size="24px" font-style="normal" font-weight="normal" text-decoration="none" x="200" y="240">UNREGISTERED</text><text fill="#eeeeee" stroke="none" font-family="Arial" font-size="24px" font-style="normal" font-weight="normal" text-decoration="none" x="200" y="270">UNREGISTERED</text><text fill="#eeeeee" stroke="none" font-family="Arial" font-size="24px" font-style="normal" font-weight="normal" text-decoration="none" x="200" y="300">UNREGISTERED</text><text fill="#eeeeee" stroke="none" font-family="Arial" font-size="24px" font-style="normal" font-weight="normal" text-decoration="none" x="200" y="330">UNREGISTERED</text><text fill="#eeeeee" stroke="none" font-family="Arial" font-size="24px" font-style="normal" font-weight="normal" text-decoration="none" x="400" y="0">UNREGISTERED</text><text fill="#eeeeee" stroke="none" font-family="Arial" font-size="24px" font-style="normal" font-weight="normal" text-decoration="none" x="400" y="30">UNREGISTERED</text><text fill="#eeeeee" stroke="none" font-family="Arial" font-size="24px" font-style="normal" font-weight="normal" text-decoration="none" x="400" y="60">UNREGISTERED</text><text fill="#eeeeee" stroke="none" font-family="Arial" font-size="24px" font-style="normal" font-weight="normal" text-decoration="none" x="400" y="90">UNREGISTERED</text><text fill="#eeeeee" stroke="none" font-family="Arial" font-size="24px" font-style="normal" font-weight="normal" text-decoration="none" x="400" y="120">UNREGISTERED</text><text fill="#eeeeee" stroke="none" font-family="Arial" font-size="24px" font-style="normal" font-weight="normal" text-decoration="none" x="400" y="150">UNREGISTERED</text><text fill="#eeeeee" stroke="none" font-family="Arial" font-size="24px" font-style="normal" font-weight="normal" text-decoration="none" x="400" y="180">UNREGISTERED</text><text fill="#eeeeee" stroke="none" font-family="Arial" font-size="24px" font-style="normal" font-weight="normal" text-decoration="none" x="400" y="210">UNREGISTERED</text><text fill="#eeeeee" stroke="none" font-family="Arial" font-size="24px" font-style="normal" font-weight="normal" text-decoration="none" x="400" y="240">UNREGISTERED</text><text fill="#eeeeee" stroke="none" font-family="Arial" font-size="24px" font-style="normal" font-weight="normal" text-decoration="none" x="400" y="270">UNREGISTERED</text><text fill="#eeeeee" stroke="none" font-family="Arial" font-size="24px" font-style="normal" font-weight="normal" text-decoration="none" x="400" y="300">UNREGISTERED</text><text fill="#eeeeee" stroke="none" font-family="Arial" font-size="24px" font-style="normal" font-weight="normal" text-decoration="none" x="400" y="330">UNREGISTERED</text><g transform="translate(-10,-10) scale(1,1)"><rect fill="#C0C0C0" stroke="none" x="247.0892333984375" y="27" width="19.600000000000023" height="15" opacity="0.2"/></g><g transform="translate(-10,-10) scale(1,1)"><rect fill="#C0C0C0" stroke="none" x="247.0892333984375" y="41" width="49" height="25" opacity="0.2"/></g><g transform="translate(-10,-10) scale(1,1)"><rect fill="#ffffff" stroke="none" x="240.0892333984375" y="35" width="49" height="24"/></g><g transform="translate(-10,-10) scale(1,1)"><path fill="none" stroke="#000000" d="M 240.0892333984375 35 L 289.0892333984375 35 L 289.0892333984375 59 L 240.0892333984375 59 L 240.0892333984375 35 Z Z" stroke-miterlimit="10"/></g><g transform="translate(-10,-10) scale(1,1)"><rect fill="#ffffff" stroke="none" x="240.0892333984375" y="20" width="19.600000000000023" height="15"/></g><g transform="translate(-10,-10) scale(1,1)"><path fill="none" stroke="#000000" d="M 240.0892333984375 20 L 259.6892333984375 20 L 259.6892333984375 35 L 240.0892333984375 35 L 240.0892333984375 20 Z Z" stroke-miterlimit="10"/></g><g transform="translate(-10,-10) scale(1,1)"><rect fill="#ffffff" stroke="none" x="240.0892333984375" y="34" width="49" height="25"/></g><g transform="translate(-10,-10) scale(1,1)"><path fill="none" stroke="#000000" d="M 240.0892333984375 34 L 289.0892333984375 34 L 289.0892333984375 59 L 240.0892333984375 59 L 240.0892333984375 34 Z Z" stroke-miterlimit="10"/></g><g transform="translate(-10,-10) scale(1,1)"><g><path fill="none" stroke="none"/><text fill="#000000" stroke="none" font-family="Arial" font-size="13px" font-style="normal" font-weight="bold" text-decoration="none" x="252.3033447265625" y="54.5">tech</text></g></g><g transform="translate(-10,-10) scale(1,1)"><rect fill="#C0C0C0" stroke="none" x="243.6187744140625" y="97" width="24.97382812500001" height="15" opacity="0.2"/></g><g transform="translate(-10,-10) scale(1,1)"><rect fill="#C0C0C0" stroke="none" x="243.6187744140625" y="111" width="62.4345703125" height="25" opacity="0.2"/></g><g transform="translate(-10,-10) scale(1,1)"><rect fill="#ffffff" stroke="none" x="236.6187744140625" y="105" width="62.4345703125" height="24"/></g><g transform="translate(-10,-10) scale(1,1)"><path fill="none" stroke="#000000" d="M 236.6187744140625 105 L 299.0533447265625 105 L 299.0533447265625 129 L 236.6187744140625 129 L 236.6187744140625 105 Z Z" stroke-miterlimit="10"/></g><g transform="translate(-10,-10) scale(1,1)"><rect fill="#ffffff" stroke="none" x="236.6187744140625" y="90" width="24.97382812500001" height="15"/></g><g transform="translate(-10,-10) scale(1,1)"><path fill="none" stroke="#000000" d="M 236.6187744140625 90 L 261.5926025390625 90 L 261.5926025390625 105 L 236.6187744140625 105 L 236.6187744140625 90 Z Z" stroke-miterlimit="10"/></g><g transform="translate(-10,-10) scale(1,1)"><rect fill="#ffffff" stroke="none" x="236.6187744140625" y="104" width="62.4345703125" height="25"/></g><g transform="translate(-10,-10) scale(1,1)"><path fill="none" stroke="#000000" d="M 236.6187744140625 104 L 299.0533447265625 104 L 299.0533447265625 129 L 236.6187744140625 129 L 236.6187744140625 104 Z Z" stroke-miterlimit="10"/></g><g transform="translate(-10,-10) scale(1,1)"><g><path fill="none" stroke="none"/><text fill="#000000" stroke="none" font-family="Arial" font-size="13px" font-style="normal" font-weight="bold" text-decoration="none" x="243.2611083984375" y="124.5">noetzold</text></g></g><g transform="translate(-10,-10) scale(1,1)"><rect fill="#C0C0C0" stroke="none" x="247.0892333984375" y="167" width="19.600000000000023" height="15" opacity="0.2"/></g><g transform="translate(-10,-10) scale(1,1)"><rect fill="#C0C0C0" stroke="none" x="247.0892333984375" y="181" width="49" height="25" opacity="0.2"/></g><g transform="translate(-10,-10) scale(1,1)"><rect fill="#ffffff" stroke="none" x="240.0892333984375" y="175" width="49" height="24"/></g><g transform="translate(-10,-10) scale(1,1)"><path fill="none" stroke="#000000" d="M 240.0892333984375 175 L 289.0892333984375 175 L 289.0892333984375 199 L 240.0892333984375 199 L 240.0892333984375 175 Z Z" stroke-miterlimit="10"/></g><g transform="translate(-10,-10) scale(1,1)"><rect fill="#ffffff" stroke="none" x="240.0892333984375" y="160" width="19.600000000000023" height="15"/></g><g transform="translate(-10,-10) scale(1,1)"><path fill="none" stroke="#000000" d="M 240.0892333984375 160 L 259.6892333984375 160 L 259.6892333984375 175 L 240.0892333984375 175 L 240.0892333984375 160 Z Z" stroke-miterlimit="10"/></g><g transform="translate(-10,-10) scale(1,1)"><rect fill="#ffffff" stroke="none" x="240.0892333984375" y="174" width="49" height="25"/></g><g transform="translate(-10,-10) scale(1,1)"><path fill="none" stroke="#000000" d="M 240.0892333984375 174 L 289.0892333984375 174 L 289.0892333984375 199 L 240.0892333984375 199 L 240.0892333984375 174 Z Z" stroke-miterlimit="10"/></g><g transform="translate(-10,-10) scale(1,1)"><g><path fill="none" stroke="none"/><text fill="#000000" stroke="none" font-family="Arial" font-size="13px" font-style="normal" font-weight="bold" text-decoration="none" x="252.6746826171875" y="194.5">mvc</text></g></g><g transform="translate(-10,-10) scale(1,1)"><rect fill="#C0C0C0" stroke="none" x="247.0892333984375" y="237" width="19.600000000000023" height="15" opacity="0.2"/></g><g transform="translate(-10,-10) scale(1,1)"><rect fill="#C0C0C0" stroke="none" x="247.0892333984375" y="251" width="49" height="25" opacity="0.2"/></g><g transform="translate(-10,-10) scale(1,1)"><rect fill="#ffffff" stroke="none" x="240.0892333984375" y="245" width="49" height="24"/></g><g transform="translate(-10,-10) scale(1,1)"><path fill="none" stroke="#000000" d="M 240.0892333984375 245 L 289.0892333984375 245 L 289.0892333984375 269 L 240.0892333984375 269 L 240.0892333984375 245 Z Z" stroke-miterlimit="10"/></g><g transform="translate(-10,-10) scale(1,1)"><rect fill="#ffffff" stroke="none" x="240.0892333984375" y="230" width="19.600000000000023" height="15"/></g><g transform="translate(-10,-10) scale(1,1)"><path fill="none" stroke="#000000" d="M 240.0892333984375 230 L 259.6892333984375 230 L 259.6892333984375 245 L 240.0892333984375 245 L 240.0892333984375 230 Z Z" stroke-miterlimit="10"/></g><g transform="translate(-10,-10) scale(1,1)"><rect fill="#ffffff" stroke="none" x="240.0892333984375" y="244" width="49" height="25"/></g><g transform="translate(-10,-10) scale(1,1)"><path fill="none" stroke="#000000" d="M 240.0892333984375 244 L 289.0892333984375 244 L 289.0892333984375 269 L 240.0892333984375 269 L 240.0892333984375 244 Z Z" stroke-miterlimit="10"/></g><g transform="translate(-10,-10) scale(1,1)"><g><path fill="none" stroke="none"/><text fill="#000000" stroke="none" font-family="Arial" font-size="13px" font-style="normal" font-weight="bold" text-decoration="none" x="250.5006103515625" y="264.5">mudi</text></g></g><g transform="translate(-10,-10) scale(1,1)"><rect fill="#C0C0C0" stroke="none" x="27" y="307" width="19.6" height="15" opacity="0.2"/></g><g transform="translate(-10,-10) scale(1,1)"><rect fill="#C0C0C0" stroke="none" x="27" y="321" width="49" height="25" opacity="0.2"/></g><g transform="translate(-10,-10) scale(1,1)"><rect fill="#ffffff" stroke="none" x="20" y="315" width="49" height="24"/></g><g transform="translate(-10,-10) scale(1,1)"><path fill="none" stroke="#000000" d="M 20 315 L 69 315 L 69 339 L 20 339 L 20 315 Z Z" stroke-miterlimit="10"/></g><g transform="translate(-10,-10) scale(1,1)"><rect fill="#ffffff" stroke="none" x="20" y="300" width="19.6" height="15"/></g><g transform="translate(-10,-10) scale(1,1)"><path fill="none" stroke="#000000" d="M 20 300 L 39.6 300 L 39.6 315 L 20 315 L 20 300 Z Z" stroke-miterlimit="10"/></g><g transform="translate(-10,-10) scale(1,1)"><rect fill="#ffffff" stroke="none" x="20" y="314" width="49" height="25"/></g><g transform="translate(-10,-10) scale(1,1)"><path fill="none" stroke="#000000" d="M 20 314 L 69 314 L 69 339 L 20 339 L 20 314 Z Z" stroke-miterlimit="10"/></g><g transform="translate(-10,-10) scale(1,1)"><g><path fill="none" stroke="none"/><text fill="#000000" stroke="none" font-family="Arial" font-size="13px" font-style="normal" font-weight="bold" text-decoration="none" x="35.825927734375" y="334.5">api</text></g></g><g transform="translate(-10,-10) scale(1,1)"><rect fill="#C0C0C0" stroke="none" x="107" y="307" width="27.581445312499994" height="15" opacity="0.2"/></g><g transform="translate(-10,-10) scale(1,1)"><rect fill="#C0C0C0" stroke="none" x="107" y="321" width="68.95361328125" height="25" opacity="0.2"/></g><g transform="translate(-10,-10) scale(1,1)"><rect fill="#ffffff" stroke="none" x="100" y="315" width="68.95361328125" height="24"/></g><g transform="translate(-10,-10) scale(1,1)"><path fill="none" stroke="#000000" d="M 100 315 L 168.95361328125 315 L 168.95361328125 339 L 100 339 L 100 315 Z Z" stroke-miterlimit="10"/></g><g transform="translate(-10,-10) scale(1,1)"><rect fill="#ffffff" stroke="none" x="100" y="300" width="27.581445312499994" height="15"/></g><g transform="translate(-10,-10) scale(1,1)"><path fill="none" stroke="#000000" d="M 100 300 L 127.5814453125 300 L 127.5814453125 315 L 100 315 L 100 300 Z Z" stroke-miterlimit="10"/></g><g transform="translate(-10,-10) scale(1,1)"><rect fill="#ffffff" stroke="none" x="100" y="314" width="68.95361328125" height="25"/></g><g transform="translate(-10,-10) scale(1,1)"><path fill="none" stroke="#000000" d="M 100 314 L 168.95361328125 314 L 168.95361328125 339 L 100 339 L 100 314 Z Z" stroke-miterlimit="10"/></g><g transform="translate(-10,-10) scale(1,1)"><g><path fill="none" stroke="none"/><text fill="#000000" stroke="none" font-family="Arial" font-size="13px" font-style="normal" font-weight="bold" text-decoration="none" x="107.74365234375" y="334.5">controller</text></g></g><g transform="translate(-10,-10) scale(1,1)"><rect fill="#C0C0C0" stroke="none" x="201.6279296875" y="307" width="19.599999999999994" height="15" opacity="0.2"/></g><g transform="translate(-10,-10) scale(1,1)"><rect fill="#C0C0C0" stroke="none" x="201.6279296875" y="321" width="49" height="25" opacity="0.2"/></g><g transform="translate(-10,-10) scale(1,1)"><rect fill="#ffffff" stroke="none" x="194.6279296875" y="315" width="49" height="24"/></g><g transform="translate(-10,-10) scale(1,1)"><path fill="none" stroke="#000000" d="M 194.6279296875 315 L 243.6279296875 315 L 243.6279296875 339 L 194.6279296875 339 L 194.6279296875 315 Z Z" stroke-miterlimit="10"/></g><g transform="translate(-10,-10) scale(1,1)"><rect fill="#ffffff" stroke="none" x="194.6279296875" y="300" width="19.599999999999994" height="15"/></g><g transform="translate(-10,-10) scale(1,1)"><path fill="none" stroke="#000000" d="M 194.6279296875 300 L 214.2279296875 300 L 214.2279296875 315 L 194.6279296875 315 L 194.6279296875 300 Z Z" stroke-miterlimit="10"/></g><g transform="translate(-10,-10) scale(1,1)"><rect fill="#ffffff" stroke="none" x="194.6279296875" y="314" width="49" height="25"/></g><g transform="translate(-10,-10) scale(1,1)"><path fill="none" stroke="#000000" d="M 194.6279296875 314 L 243.6279296875 314 L 243.6279296875 339 L 194.6279296875 339 L 194.6279296875 314 Z Z" stroke-miterlimit="10"/></g><g transform="translate(-10,-10) scale(1,1)"><g><path fill="none" stroke="none"/><text fill="#000000" stroke="none" font-family="Arial" font-size="13px" font-style="normal" font-weight="bold" text-decoration="none" x="210.092041015625" y="334.5">dto</text></g></g><g transform="translate(-10,-10) scale(1,1)"><rect fill="#C0C0C0" stroke="none" x="281.6279296875" y="307" width="30.760351562499977" height="15" opacity="0.2"/></g><g transform="translate(-10,-10) scale(1,1)"><rect fill="#C0C0C0" stroke="none" x="281.6279296875" y="321" width="76.90087890625" height="25" opacity="0.2"/></g><g transform="translate(-10,-10) scale(1,1)"><rect fill="#ffffff" stroke="none" x="274.6279296875" y="315" width="76.90087890625" height="24"/></g><g transform="translate(-10,-10) scale(1,1)"><path fill="none" stroke="#000000" d="M 274.6279296875 315 L 351.52880859375 315 L 351.52880859375 339 L 274.6279296875 339 L 274.6279296875 315 Z Z" stroke-miterlimit="10"/></g><g transform="translate(-10,-10) scale(1,1)"><rect fill="#ffffff" stroke="none" x="274.6279296875" y="300" width="30.760351562499977" height="15"/></g><g transform="translate(-10,-10) scale(1,1)"><path fill="none" stroke="#000000" d="M 274.6279296875 300 L 305.38828125 300 L 305.38828125 315 L 274.6279296875 315 L 274.6279296875 300 Z Z" stroke-miterlimit="10"/></g><g transform="translate(-10,-10) scale(1,1)"><rect fill="#ffffff" stroke="none" x="274.6279296875" y="314" width="76.90087890625" height="25"/></g><g transform="translate(-10,-10) scale(1,1)"><path fill="none" stroke="#000000" d="M 274.6279296875 314 L 351.52880859375 314 L 351.52880859375 339 L 274.6279296875 339 L 274.6279296875 314 Z Z" stroke-miterlimit="10"/></g><g transform="translate(-10,-10) scale(1,1)"><g><path fill="none" stroke="none"/><text fill="#000000" stroke="none" font-family="Arial" font-size="13px" font-style="normal" font-weight="bold" text-decoration="none" x="282.368408203125" y="334.5">interceptor</text></g></g><g transform="translate(-10,-10) scale(1,1)"><rect fill="#C0C0C0" stroke="none" x="383.47314453125" y="307" width="19.600000000000023" height="15" opacity="0.2"/></g><g transform="translate(-10,-10) scale(1,1)"><rect fill="#C0C0C0" stroke="none" x="383.47314453125" y="321" width="49" height="25" opacity="0.2"/></g><g transform="translate(-10,-10) scale(1,1)"><rect fill="#ffffff" stroke="none" x="376.47314453125" y="315" width="49" height="24"/></g><g transform="translate(-10,-10) scale(1,1)"><path fill="none" stroke="#000000" d="M 376.47314453125 315 L 425.47314453125 315 L 425.47314453125 339 L 376.47314453125 339 L 376.47314453125 315 Z Z" stroke-miterlimit="10"/></g><g transform="translate(-10,-10) scale(1,1)"><rect fill="#ffffff" stroke="none" x="376.47314453125" y="300" width="19.600000000000023" height="15"/></g><g transform="translate(-10,-10) scale(1,1)"><path fill="none" stroke="#000000" d="M 376.47314453125 300 L 396.07314453125 300 L 396.07314453125 315 L 376.47314453125 315 L 376.47314453125 300 Z Z" stroke-miterlimit="10"/></g><g transform="translate(-10,-10) scale(1,1)"><rect fill="#ffffff" stroke="none" x="376.47314453125" y="314" width="49" height="25"/></g><g transform="translate(-10,-10) scale(1,1)"><path fill="none" stroke="#000000" d="M 376.47314453125 314 L 425.47314453125 314 L 425.47314453125 339 L 376.47314453125 339 L 376.47314453125 314 Z Z" stroke-miterlimit="10"/></g><g transform="translate(-10,-10) scale(1,1)"><g><path fill="none" stroke="none"/><text fill="#000000" stroke="none" font-family="Arial" font-size="13px" font-style="normal" font-weight="bold" text-decoration="none" x="383.26953125" y="334.5">model</text></g></g><g transform="translate(-10,-10) scale(1,1)"><rect fill="#C0C0C0" stroke="none" x="463.47314453125" y="307" width="29.028710937500023" height="15" opacity="0.2"/></g><g transform="translate(-10,-10) scale(1,1)"><rect fill="#C0C0C0" stroke="none" x="463.47314453125" y="321" width="72.57177734375" height="25" opacity="0.2"/></g><g transform="translate(-10,-10) scale(1,1)"><rect fill="#ffffff" stroke="none" x="456.47314453125" y="315" width="72.57177734375" height="24"/></g><g transform="translate(-10,-10) scale(1,1)"><path fill="none" stroke="#000000" d="M 456.47314453125 315 L 529.044921875 315 L 529.044921875 339 L 456.47314453125 339 L 456.47314453125 315 Z Z" stroke-miterlimit="10"/></g><g transform="translate(-10,-10) scale(1,1)"><rect fill="#ffffff" stroke="none" x="456.47314453125" y="300" width="29.028710937500023" height="15"/></g><g transform="translate(-10,-10) scale(1,1)"><path fill="none" stroke="#000000" d="M 456.47314453125 300 L 485.50185546875 300 L 485.50185546875 315 L 456.47314453125 315 L 456.47314453125 300 Z Z" stroke-miterlimit="10"/></g><g transform="translate(-10,-10) scale(1,1)"><rect fill="#ffffff" stroke="none" x="456.47314453125" y="314" width="72.57177734375" height="25"/></g><g transform="translate(-10,-10) scale(1,1)"><path fill="none" stroke="#000000" d="M 456.47314453125 314 L 529.044921875 314 L 529.044921875 339 L 456.47314453125 339 L 456.47314453125 314 Z Z" stroke-miterlimit="10"/></g><g transform="translate(-10,-10) scale(1,1)"><g><path fill="none" stroke="none"/><text fill="#000000" stroke="none" font-family="Arial" font-size="13px" font-style="normal" font-weight="bold" text-decoration="none" x="464.219970703125" y="334.5">repository</text></g></g><g transform="translate(-10,-10) scale(1,1)"><path fill="none" stroke="#000000" d="M 266 89 Q 265 75 265 60" stroke-miterlimit="10"/></g><g transform="translate(-10,-10) scale(1,1)"><path fill="#FFFFFF" stroke="none" d="M 258 67 C 258 63.1340064 261.1340064 60 265 60 C 268.8659936 60 272 63.1340064 272 67 C 272 70.8659936 268.8659936 74 265 74 C 261.1340064 74 258 70.8659936 258 67 Z"/></g><g transform="translate(-10,-10) scale(1,1)"><path fill="none" stroke="#000000" d="M 258 67 C 258 63.1340064 261.1340064 60 265 60 C 268.8659936 60 272 63.1340064 272 67 C 272 70.8659936 268.8659936 74 265 74 C 261.1340064 74 258 70.8659936 258 67 Z" stroke-miterlimit="10"/></g><g transform="translate(-10,-10) scale(1,1)"><path fill="none" stroke="#000000" d="M 265 74 L 265 60" stroke-miterlimit="10"/></g><g transform="translate(-10,-10) scale(1,1)"><path fill="none" stroke="#000000" d="M 272 67 L 258 67" stroke-miterlimit="10"/></g><g transform="translate(-10,-10) scale(1,1)"><path fill="none" stroke="#000000" d="M 265 159 Q 265 145 266 130" stroke-miterlimit="10"/></g><g transform="translate(-10,-10) scale(1,1)"><path fill="#FFFFFF" stroke="none" d="M 258.5343669263336 136.98449610499625 C 258.5343669263336 133.11850250499626 261.66837332633355 129.98449610499625 265.5343669263336 129.98449610499625 C 269.4003605263336 129.98449610499625 272.5343669263336 133.11850250499626 272.5343669263336 136.98449610499625 C 272.5343669263336 140.85048970499625 269.4003605263336 143.98449610499625 265.5343669263336 143.98449610499625 C 261.66837332633355 143.98449610499625 258.5343669263336 140.85048970499625 258.5343669263336 136.98449610499625 Z"/></g><g transform="translate(-10,-10) scale(1,1)"><path fill="none" stroke="#000000" d="M 258.5343669263336 136.98449610499625 C 258.5343669263336 133.11850250499626 261.66837332633355 129.98449610499625 265.5343669263336 129.98449610499625 C 269.4003605263336 129.98449610499625 272.5343669263336 133.11850250499626 272.5343669263336 136.98449610499625 C 272.5343669263336 140.85048970499625 269.4003605263336 143.98449610499625 265.5343669263336 143.98449610499625 C 261.66837332633355 143.98449610499625 258.5343669263336 140.85048970499625 258.5343669263336 136.98449610499625 Z" stroke-miterlimit="10"/></g><g transform="translate(-10,-10) scale(1,1)"><path fill="none" stroke="#000000" d="M 265.06873385266715 143.96899220999254 L 266 130" stroke-miterlimit="10"/></g><g transform="translate(-10,-10) scale(1,1)"><path fill="none" stroke="#000000" d="M 272.51886303132983 137.45012917866268 L 258.5498708213373 136.51886303132983" stroke-miterlimit="10"/></g><g transform="translate(-10,-10) scale(1,1)"><path fill="none" stroke="#000000" d="M 265 229 Q 265 215 265 200" stroke-miterlimit="10"/></g><g transform="translate(-10,-10) scale(1,1)"><path fill="#FFFFFF" stroke="none" d="M 258 207 C 258 203.1340064 261.1340064 200 265 200 C 268.8659936 200 272 203.1340064 272 207 C 272 210.8659936 268.8659936 214 265 214 C 261.1340064 214 258 210.8659936 258 207 Z"/></g><g transform="translate(-10,-10) scale(1,1)"><path fill="none" stroke="#000000" d="M 258 207 C 258 203.1340064 261.1340064 200 265 200 C 268.8659936 200 272 203.1340064 272 207 C 272 210.8659936 268.8659936 214 265 214 C 261.1340064 214 258 210.8659936 258 207 Z" stroke-miterlimit="10"/></g><g transform="translate(-10,-10) scale(1,1)"><path fill="none" stroke="#000000" d="M 265 214 L 265 200" stroke-miterlimit="10"/></g><g transform="translate(-10,-10) scale(1,1)"><path fill="none" stroke="#000000" d="M 272 207 L 258 207" stroke-miterlimit="10"/></g><g transform="translate(-10,-10) scale(1,1)"><path fill="none" stroke="#000000" d="M 45 299 Q 45 285 239 253" stroke-miterlimit="10"/></g><g transform="translate(-10,-10) scale(1,1)"><path fill="#FFFFFF" stroke="none" d="M 225.09332778717896 254.13924490108388 C 225.09332778717896 250.2732513010839 228.22733418717897 247.13924490108388 232.09332778717896 247.13924490108388 C 235.95932138717896 247.13924490108388 239.09332778717896 250.2732513010839 239.09332778717896 254.13924490108388 C 239.09332778717896 258.0052385010839 235.95932138717896 261.1392449010839 232.09332778717896 261.1392449010839 C 228.22733418717897 261.1392449010839 225.09332778717896 258.0052385010839 225.09332778717896 254.13924490108388 Z"/></g><g transform="translate(-10,-10) scale(1,1)"><path fill="none" stroke="#000000" d="M 225.09332778717896 254.13924490108388 C 225.09332778717896 250.2732513010839 228.22733418717897 247.13924490108388 232.09332778717896 247.13924490108388 C 235.95932138717896 247.13924490108388 239.09332778717896 250.2732513010839 239.09332778717896 254.13924490108388 C 239.09332778717896 258.0052385010839 235.95932138717896 261.1392449010839 232.09332778717896 261.1392449010839 C 228.22733418717897 261.1392449010839 225.09332778717896 258.0052385010839 225.09332778717896 254.13924490108388 Z" stroke-miterlimit="10"/></g><g transform="translate(-10,-10) scale(1,1)"><path fill="none" stroke="#000000" d="M 225.1866555743579 255.27848980216777 L 239 253" stroke-miterlimit="10"/></g><g transform="translate(-10,-10) scale(1,1)"><path fill="none" stroke="#000000" d="M 233.23257268826285 261.0459171139049 L 230.95408288609508 247.23257268826285" stroke-miterlimit="10"/></g><g transform="translate(-10,-10) scale(1,1)"><path fill="none" stroke="#000000" d="M 133 299 Q 132 285 239 256" stroke-miterlimit="10"/></g><g transform="translate(-10,-10) scale(1,1)"><path fill="#FFFFFF" stroke="none" d="M 225.24374743376092 257.8311338730928 C 225.24374743376092 253.96514027309283 228.37775383376092 250.83113387309282 232.24374743376092 250.83113387309282 C 236.1097410337609 250.83113387309282 239.24374743376092 253.96514027309283 239.24374743376092 257.8311338730928 C 239.24374743376092 261.69712747309285 236.1097410337609 264.8311338730928 232.24374743376092 264.8311338730928 C 228.37775383376092 264.8311338730928 225.24374743376092 261.69712747309285 225.24374743376092 257.8311338730928 Z"/></g><g transform="translate(-10,-10) scale(1,1)"><path fill="none" stroke="#000000" d="M 225.24374743376092 257.8311338730928 C 225.24374743376092 253.96514027309283 228.37775383376092 250.83113387309282 232.24374743376092 250.83113387309282 C 236.1097410337609 250.83113387309282 239.24374743376092 253.96514027309283 239.24374743376092 257.8311338730928 C 239.24374743376092 261.69712747309285 236.1097410337609 264.8311338730928 232.24374743376092 264.8311338730928 C 228.37775383376092 264.8311338730928 225.24374743376092 261.69712747309285 225.24374743376092 257.8311338730928 Z" stroke-miterlimit="10"/></g><g transform="translate(-10,-10) scale(1,1)"><path fill="none" stroke="#000000" d="M 225.48749486752186 259.66226774618565 L 239 256" stroke-miterlimit="10"/></g><g transform="translate(-10,-10) scale(1,1)"><path fill="none" stroke="#000000" d="M 234.07488130685374 264.5873864393319 L 230.4126135606681 251.07488130685374" stroke-miterlimit="10"/></g><g transform="translate(-10,-10) scale(1,1)"><path fill="none" stroke="#000000" d="M 220 299 Q 220 285 239 269" stroke-miterlimit="10"/></g><g transform="translate(-10,-10) scale(1,1)"><path fill="#FFFFFF" stroke="none" d="M 226.64562161318065 273.50895022047945 C 226.64562161318065 269.6429566204794 229.77962801318066 266.50895022047945 233.64562161318065 266.50895022047945 C 237.51161521318065 266.50895022047945 240.64562161318065 269.6429566204794 240.64562161318065 273.50895022047945 C 240.64562161318065 277.3749438204795 237.51161521318065 280.50895022047945 233.64562161318065 280.50895022047945 C 229.77962801318066 280.50895022047945 226.64562161318065 277.3749438204795 226.64562161318065 273.50895022047945 Z"/></g><g transform="translate(-10,-10) scale(1,1)"><path fill="none" stroke="#000000" d="M 226.64562161318065 273.50895022047945 C 226.64562161318065 269.6429566204794 229.77962801318066 266.50895022047945 233.64562161318065 266.50895022047945 C 237.51161521318065 266.50895022047945 240.64562161318065 269.6429566204794 240.64562161318065 273.50895022047945 C 240.64562161318065 277.3749438204795 237.51161521318065 280.50895022047945 233.64562161318065 280.50895022047945 C 229.77962801318066 280.50895022047945 226.64562161318065 277.3749438204795 226.64562161318065 273.50895022047945 Z" stroke-miterlimit="10"/></g><g transform="translate(-10,-10) scale(1,1)"><path fill="none" stroke="#000000" d="M 228.2912432263613 278.0179004409589 L 239 269" stroke-miterlimit="10"/></g><g transform="translate(-10,-10) scale(1,1)"><path fill="none" stroke="#000000" d="M 238.1545718336601 278.8633286072988 L 229.1366713927012 268.1545718336601" stroke-miterlimit="10"/></g><g transform="translate(-10,-10) scale(1,1)"><path fill="none" stroke="#000000" d="M 312 299 Q 311 285 290 269" stroke-miterlimit="10"/></g><g transform="translate(-10,-10) scale(1,1)"><path fill="#FFFFFF" stroke="none" d="M 288.5680220402275 273.24230250684 C 288.5680220402275 269.37630890684 291.7020284402275 266.24230250684 295.5680220402275 266.24230250684 C 299.4340156402275 266.24230250684 302.5680220402275 269.37630890684 302.5680220402275 273.24230250684 C 302.5680220402275 277.10829610684004 299.4340156402275 280.24230250684 295.5680220402275 280.24230250684 C 291.7020284402275 280.24230250684 288.5680220402275 277.10829610684004 288.5680220402275 273.24230250684 Z"/></g><g transform="translate(-10,-10) scale(1,1)"><path fill="none" stroke="#000000" d="M 288.5680220402275 273.24230250684 C 288.5680220402275 269.37630890684 291.7020284402275 266.24230250684 295.5680220402275 266.24230250684 C 299.4340156402275 266.24230250684 302.5680220402275 269.37630890684 302.5680220402275 273.24230250684 C 302.5680220402275 277.10829610684004 299.4340156402275 280.24230250684 295.5680220402275 280.24230250684 C 291.7020284402275 280.24230250684 288.5680220402275 277.10829610684004 288.5680220402275 273.24230250684 Z" stroke-miterlimit="10"/></g><g transform="translate(-10,-10) scale(1,1)"><path fill="none" stroke="#000000" d="M 301.136044080455 277.48460501368 L 290 269" stroke-miterlimit="10"/></g><g transform="translate(-10,-10) scale(1,1)"><path fill="none" stroke="#000000" d="M 299.8103245470675 267.6742804666125 L 291.3257195333875 278.8103245470675" stroke-miterlimit="10"/></g><g transform="translate(-10,-10) scale(1,1)"><path fill="none" stroke="#000000" d="M 401 299 Q 401 285 290 256" stroke-miterlimit="10"/></g><g transform="translate(-10,-10) scale(1,1)"><path fill="#FFFFFF" stroke="none" d="M 289.77267250374865 257.76943696043884 C 289.77267250374865 253.90344336043884 292.9066789037486 250.76943696043884 296.77267250374865 250.76943696043884 C 300.6386661037487 250.76943696043884 303.77267250374865 253.90344336043884 303.77267250374865 257.76943696043884 C 303.77267250374865 261.63543056043886 300.6386661037487 264.76943696043884 296.77267250374865 264.76943696043884 C 292.9066789037486 264.76943696043884 289.77267250374865 261.63543056043886 289.77267250374865 257.76943696043884 Z"/></g><g transform="translate(-10,-10) scale(1,1)"><path fill="none" stroke="#000000" d="M 289.77267250374865 257.76943696043884 C 289.77267250374865 253.90344336043884 292.9066789037486 250.76943696043884 296.77267250374865 250.76943696043884 C 300.6386661037487 250.76943696043884 303.77267250374865 253.90344336043884 303.77267250374865 257.76943696043884 C 303.77267250374865 261.63543056043886 300.6386661037487 264.76943696043884 296.77267250374865 264.76943696043884 C 292.9066789037486 264.76943696043884 289.77267250374865 261.63543056043886 289.77267250374865 257.76943696043884 Z" stroke-miterlimit="10"/></g><g transform="translate(-10,-10) scale(1,1)"><path fill="none" stroke="#000000" d="M 303.5453450074973 259.5388739208777 L 290 256" stroke-miterlimit="10"/></g><g transform="translate(-10,-10) scale(1,1)"><path fill="none" stroke="#000000" d="M 298.5421094641875 250.9967644566902 L 295.0032355433098 264.5421094641875" stroke-miterlimit="10"/></g><g transform="translate(-10,-10) scale(1,1)"><path fill="none" stroke="#000000" d="M 491 299 Q 490 285 290 253" stroke-miterlimit="10"/></g><g transform="translate(-10,-10) scale(1,1)"><path fill="#FFFFFF" stroke="none" d="M 289.91208442341696 254.10593350774673 C 289.91208442341696 250.23993990774673 293.04609082341693 247.1059335077467 296.91208442341696 247.1059335077467 C 300.778078023417 247.1059335077467 303.91208442341696 250.23993990774673 303.91208442341696 254.10593350774673 C 303.91208442341696 257.97192710774675 300.778078023417 261.1059335077467 296.91208442341696 261.1059335077467 C 293.04609082341693 261.1059335077467 289.91208442341696 257.97192710774675 289.91208442341696 254.10593350774673 Z"/></g><g transform="translate(-10,-10) scale(1,1)"><path fill="none" stroke="#000000" d="M 289.91208442341696 254.10593350774673 C 289.91208442341696 250.23993990774673 293.04609082341693 247.1059335077467 296.91208442341696 247.1059335077467 C 300.778078023417 247.1059335077467 303.91208442341696 250.23993990774673 303.91208442341696 254.10593350774673 C 303.91208442341696 257.97192710774675 300.778078023417 261.1059335077467 296.91208442341696 261.1059335077467 C 293.04609082341693 261.1059335077467 289.91208442341696 257.97192710774675 289.91208442341696 254.10593350774673 Z" stroke-miterlimit="10"/></g><g transform="translate(-10,-10) scale(1,1)"><path fill="none" stroke="#000000" d="M 303.82416884683386 255.21186701549343 L 290 253" stroke-miterlimit="10"/></g><g transform="translate(-10,-10) scale(1,1)"><path fill="none" stroke="#000000" d="M 298.0180179311637 247.19384908432977 L 295.80615091567023 261.0180179311636" stroke-miterlimit="10"/></g></g></svg>