<svg version="1.1" xmlns="http://www.w3.org/2000/svg" xmlns:xlink="http://www.w3.org/1999/xlink" width="263.5380859375" height="167"><defs/><g><text fill="#eeeeee" stroke="none" font-family="Arial" font-size="24px" font-style="normal" font-weight="normal" text-decoration="none" x="0" y="0">UNREGISTERED</text><text fill="#eeeeee" stroke="none" font-family="Arial" font-size="24px" font-style="normal" font-weight="normal" text-decoration="none" x="0" y="30">UNREGISTERED</text><text fill="#eeeeee" stroke="none" font-family="Arial" font-size="24px" font-style="normal" font-weight="normal" text-decoration="none" x="0" y="60">UNREGISTERED</text><text fill="#eeeeee" stroke="none" font-family="Arial" font-size="24px" font-style="normal" font-weight="normal" text-decoration="none" x="0" y="90">UNREGISTERED</text><text fill="#eeeeee" stroke="none" font-family="Arial" font-size="24px" font-style="normal" font-weight="normal" text-decoration="none" x="0" y="120">UNREGISTERED</text><text fill="#eeeeee" stroke="none" font-family="Arial" font-size="24px" font-style="normal" font-weight="normal" text-decoration="none" x="0" y="150">UNREGISTERED</text><text fill="#eeeeee" stroke="none" font-family="Arial" font-size="24px" font-style="normal" font-weight="normal" text-decoration="none" x="200" y="0">UNREGISTERED</text><text fill="#eeeeee" stroke="none" font-family="Arial" font-size="24px" font-style="normal" font-weight="normal" text-decoration="none" x="200" y="30">UNREGISTERED</text><text fill="#eeeeee" stroke="none" font-family="Arial" font-size="24px" font-style="normal" font-weight="normal" text-decoration="none" x="200" y="60">UNREGISTERED</text><text fill="#eeeeee" stroke="none" font-family="Arial" font-size="24px" font-style="normal" font-weight="normal" text-decoration="none" x="200" y="90">UNREGISTERED</text><text fill="#eeeeee" stroke="none" font-family="Arial" font-size="24px" font-style="normal" font-weight="normal" text-decoration="none" x="200" y="120">UNREGISTERED</text><text fill="#eeeeee" stroke="none" font-family="Arial" font-size="24px" font-style="normal" font-weight="normal" text-decoration="none" x="200" y="150">UNREGISTERED</text><g transform="translate(61,-10) scale(1,1)"><rect fill="#C0C0C0" stroke="none" x="27" y="33.5" width="47.2890625" height="24" opacity="0.2"/></g><g transform="translate(61,-10) scale(1,1)"><rect fill="#ffffff" stroke="none" x="20" y="26.5" width="47.2890625" height="24"/></g><g transform="translate(61,-10) scale(1,1)"><path fill="none" stroke="#000000" d="M 20 26.5 L 67.2890625 26.5 L 67.2890625 50.5 L 20 50.5 L 20 26.5 Z Z" stroke-miterlimit="10"/></g><g transform="translate(61,-10) scale(1,1)"><g><path fill="none" stroke="none"/><text fill="#000000" stroke="none" font-family="Arial" font-size="13px" font-style="normal" font-weight="bold" text-decoration="none" x="25.582275390625" y="46">Oferta</text></g></g><g transform="translate(61,-10) scale(1,1)"><rect fill="#C0C0C0" stroke="none" x="41.263671875" y="95" width="52.33544921875" height="24" opacity="0.2"/></g><g transform="translate(61,-10) scale(1,1)"><rect fill="#ffffff" stroke="none" x="34.263671875" y="88" width="52.33544921875" height="24"/></g><g transform="translate(61,-10) scale(1,1)"><path fill="none" stroke="#000000" d="M 34.263671875 88 L 86.59912109375 88 L 86.59912109375 112 L 34.263671875 112 L 34.263671875 88 Z Z" stroke-miterlimit="10"/></g><g transform="translate(61,-10) scale(1,1)"><g><path fill="none" stroke="none"/><text fill="#000000" stroke="none" font-family="Arial" font-size="13px" font-style="normal" font-weight="bold" text-decoration="none" x="40.19189453125" y="107.5">Pedido</text></g></g><g transform="translate(61,-10) scale(1,1)"><rect fill="#C0C0C0" stroke="none" x="103.81005859375" y="27" width="95.72802734375" height="37" opacity="0.2"/></g><g transform="translate(61,-10) scale(1,1)"><rect fill="#ffffff" stroke="none" x="96.81005859375" y="20" width="95.72802734375" height="37"/></g><g transform="translate(61,-10) scale(1,1)"><path fill="none" stroke="#000000" d="M 96.81005859375 20 L 192.5380859375 20 L 192.5380859375 57 L 96.81005859375 57 L 96.81005859375 20 Z Z" stroke-miterlimit="10"/></g><g transform="translate(61,-10) scale(1,1)"><g><path fill="none" stroke="none"/><text fill="#000000" stroke="none" font-family="Arial" font-size="13px" font-style="normal" font-weight="normal" text-decoration="none" x="101.31005859375" y="37.5">«enumeration»</text></g></g><g transform="translate(61,-10) scale(1,1)"><g><path fill="none" stroke="none"/><text fill="#000000" stroke="none" font-family="Arial" font-size="13px" font-style="normal" font-weight="bold" text-decoration="none" x="106.00732421875" y="52.5">StatusPedido</text></g></g><g transform="translate(61,-10) scale(1,1)"><rect fill="#C0C0C0" stroke="none" x="47.411376953125" y="150" width="37.9072265625" height="24" opacity="0.2"/></g><g transform="translate(61,-10) scale(1,1)"><rect fill="#ffffff" stroke="none" x="40.411376953125" y="143" width="37.9072265625" height="24"/></g><g transform="translate(61,-10) scale(1,1)"><path fill="none" stroke="#000000" d="M 40.411376953125 143 L 78.318603515625 143 L 78.318603515625 167 L 40.411376953125 167 L 40.411376953125 143 Z Z" stroke-miterlimit="10"/></g><g transform="translate(61,-10) scale(1,1)"><g><path fill="none" stroke="none"/><text fill="#000000" stroke="none" font-family="Arial" font-size="13px" font-style="normal" font-weight="bold" text-decoration="none" x="45.641357421875" y="162.5">User</text></g></g><g transform="translate(61,-10) scale(1,1)"><path fill="none" stroke="#000000" d="M 49 52 Q 49 52 53.5 62.5 Q 58 73 59 87" stroke-miterlimit="10"/></g><g transform="translate(61,-10) scale(1,1)"><path fill="none" stroke="#000000" d="M 54.077119288577876 77.16306727169957 L 59 87 L 62.47475950423808 76.56323582772384" stroke-miterlimit="10"/></g><g transform="translate(61,-10) scale(1,1)"><g><path fill="none" stroke="none"/><text fill="#000000" stroke="none" font-family="Arial" font-size="13px" font-style="normal" font-weight="normal" text-decoration="none" x="50.5" y="66.5">-pedido</text></g></g><g transform="translate(61,-10) scale(1,1)"><path fill="none" stroke="#000000" d="M 45 87 Q 28 73 37 52" stroke-miterlimit="10"/></g><g transform="translate(61,-10) scale(1,1)"><path fill="none" stroke="#000000" d="M 36.865883572611416 62.99918236888109 L 37 52 L 29.127568924181688 59.68276180526835" stroke-miterlimit="10"/></g><g transform="translate(61,-10) scale(1,1)"><g><path fill="none" stroke="none"/><text fill="#000000" stroke="none" font-family="Arial" font-size="13px" font-style="normal" font-weight="normal" text-decoration="none" x="-10.5" y="75.5">-ofertas</text></g></g><g transform="translate(61,-10) scale(1,1)"><g><path fill="none" stroke="none"/><text fill="#000000" stroke="none" font-family="Arial" font-size="13px" font-style="normal" font-weight="normal" text-decoration="none" x="-50.512939453125" y="72.5">{collection="List"}</text></g></g><g transform="translate(61,-10) scale(1,1)"><g><path fill="none" stroke="none"/><text fill="#000000" stroke="none" font-family="Arial" font-size="13px" font-style="normal" font-weight="normal" text-decoration="none" x="36.220458984375" y="82.5">*</text></g></g><g transform="translate(61,-10) scale(1,1)"><path fill="none" stroke="#000000" d="M 88 91 Q 141 73 142 58" stroke-miterlimit="10"/></g><g transform="translate(61,-10) scale(1,1)"><path fill="none" stroke="#000000" d="M 145.52418326288262 68.42017909297235 L 142 58 L 137.1237945855094 67.86015318114747" stroke-miterlimit="10"/></g><g transform="translate(61,-10) scale(1,1)"><g><path fill="none" stroke="none"/><text fill="#000000" stroke="none" font-family="Arial" font-size="13px" font-style="normal" font-weight="normal" text-decoration="none" x="105.5" y="88.5">-status</text></g></g><g transform="translate(61,-10) scale(1,1)"><path fill="none" stroke="#000000" d="M 72 113 Q 72 113 80 120.5 Q 88 128 73 142" stroke-miterlimit="10"/></g><g transform="translate(61,-10) scale(1,1)"><path fill="none" stroke="#000000" d="M 77.55724620396126 131.98843133987083 L 73 142 L 83.30170778424971 138.1432116044656" stroke-miterlimit="10"/></g><g transform="translate(61,-10) scale(1,1)"><g><path fill="none" stroke="none"/><text fill="#000000" stroke="none" font-family="Arial" font-size="13px" font-style="normal" font-weight="normal" text-decoration="none" x="87.5" y="141.5">-user</text></g></g><g transform="translate(61,-10) scale(1,1)"><path fill="none" stroke="#000000" d="M 59 142 Q 58 128 59 113" stroke-miterlimit="10"/></g><g transform="translate(61,-10) scale(1,1)"><path fill="none" stroke="#000000" d="M 62.524183262882616 123.42017909297235 L 59 113 L 54.1237945855094 122.86015318114747" stroke-miterlimit="10"/></g><g transform="translate(61,-10) scale(1,1)"><g><path fill="none" stroke="none"/><text fill="#000000" stroke="none" font-family="Arial" font-size="13px" font-style="normal" font-weight="normal" text-decoration="none" x="17.5" y="143.5">-pedidos</text></g></g><g transform="translate(61,-10) scale(1,1)"><g><path fill="none" stroke="none"/><text fill="#000000" stroke="none" font-family="Arial" font-size="13px" font-style="normal" font-weight="normal" text-decoration="none" x="-21.512939453125" y="145.5">{collection="List"}</text></g></g><g transform="translate(61,-10) scale(1,1)"><g><path fill="none" stroke="none"/><text fill="#000000" stroke="none" font-family="Arial" font-size="13px" font-style="normal" font-weight="normal" text-decoration="none" x="67.220458984375" y="141.5">*</text></g></g></g></svg>