<svg version="1.1" xmlns="http://www.w3.org/2000/svg" xmlns:xlink="http://www.w3.org/1999/xlink" width="264.7490234375" height="68"><defs/><g><text fill="#eeeeee" stroke="none" font-family="Arial" font-size="24px" font-style="normal" font-weight="normal" text-decoration="none" x="0" y="0">UNREGISTERED</text><text fill="#eeeeee" stroke="none" font-family="Arial" font-size="24px" font-style="normal" font-weight="normal" text-decoration="none" x="0" y="30">UNREGISTERED</text><text fill="#eeeeee" stroke="none" font-family="Arial" font-size="24px" font-style="normal" font-weight="normal" text-decoration="none" x="0" y="60">UNREGISTERED</text><text fill="#eeeeee" stroke="none" font-family="Arial" font-size="24px" font-style="normal" font-weight="normal" text-decoration="none" x="200" y="0">UNREGISTERED</text><text fill="#eeeeee" stroke="none" font-family="Arial" font-size="24px" font-style="normal" font-weight="normal" text-decoration="none" x="200" y="30">UNREGISTERED</text><text fill="#eeeeee" stroke="none" font-family="Arial" font-size="24px" font-style="normal" font-weight="normal" text-decoration="none" x="200" y="60">UNREGISTERED</text><g transform="translate(-10,-10) scale(1,1)"><path fill="#C0C0C0" stroke="none" d="M 75.6181640625 38.5 C 75.6181640625 32.1487248 80.7668888625 27 87.1181640625 27 C 93.4694392625 27 98.6181640625 32.1487248 98.6181640625 38.5 C 98.6181640625 44.8512752 93.4694392625 50 87.1181640625 50 C 80.7668888625 50 75.6181640625 44.8512752 75.6181640625 38.5 Z" opacity="0.2"/></g><g transform="translate(-10,-10) scale(1,1)"><path fill="#ffffff" stroke="none" d="M 68.6181640625 31.5 C 68.6181640625 25.1487248 73.7668888625 20 80.1181640625 20 C 86.4694392625 20 91.6181640625 25.1487248 91.6181640625 31.5 C 91.6181640625 37.8512752 86.4694392625 43 80.1181640625 43 C 73.7668888625 43 68.6181640625 37.8512752 68.6181640625 31.5 Z"/></g><g transform="translate(-10,-10) scale(1,1)"><path fill="none" stroke="#000000" d="M 68.6181640625 31.5 C 68.6181640625 25.1487248 73.7668888625 20 80.1181640625 20 C 86.4694392625 20 91.6181640625 25.1487248 91.6181640625 31.5 C 91.6181640625 37.8512752 86.4694392625 43 80.1181640625 43 C 73.7668888625 43 68.6181640625 37.8512752 68.6181640625 31.5 Z" stroke-miterlimit="10"/></g><g transform="translate(-10,-10) scale(1,1)"><g><path fill="none" stroke="none"/><text fill="#000000" stroke="none" font-family="Arial" font-size="13px" font-style="normal" font-weight="bold" text-decoration="none" x="28.81005859375" y="62.5">PedidoRepository</text></g></g><g transform="translate(-10,-10) scale(1,1)"><path fill="#C0C0C0" stroke="none" d="M 207.344970703125 38.5 C 207.344970703125 32.1487248 212.493695503125 27 218.844970703125 27 C 225.196245903125 27 230.344970703125 32.1487248 230.344970703125 38.5 C 230.344970703125 44.8512752 225.196245903125 50 218.844970703125 50 C 212.493695503125 50 207.344970703125 44.8512752 207.344970703125 38.5 Z" opacity="0.2"/></g><g transform="translate(-10,-10) scale(1,1)"><path fill="#ffffff" stroke="none" d="M 200.344970703125 31.5 C 200.344970703125 25.1487248 205.493695503125 20 211.844970703125 20 C 218.196245903125 20 223.344970703125 25.1487248 223.344970703125 31.5 C 223.344970703125 37.8512752 218.196245903125 43 211.844970703125 43 C 205.493695503125 43 200.344970703125 37.8512752 200.344970703125 31.5 Z"/></g><g transform="translate(-10,-10) scale(1,1)"><path fill="none" stroke="#000000" d="M 200.344970703125 31.5 C 200.344970703125 25.1487248 205.493695503125 20 211.844970703125 20 C 218.196245903125 20 223.344970703125 25.1487248 223.344970703125 31.5 C 223.344970703125 37.8512752 218.196245903125 43 211.844970703125 43 C 205.493695503125 43 200.344970703125 37.8512752 200.344970703125 31.5 Z" stroke-miterlimit="10"/></g><g transform="translate(-10,-10) scale(1,1)"><g><path fill="none" stroke="none"/><text fill="#000000" stroke="none" font-family="Arial" font-size="13px" font-style="normal" font-weight="bold" text-decoration="none" x="167.052734375" y="62.5">UserRepository</text></g></g></g></svg>